<?xml version="1.0" encoding="utf-8"?>
<!-- Generator: Adobe Illustrator 23.0.3, SVG Export Plug-In . SVG Version: 6.00 Build 0)  -->
<svg version="1.1" id="Layer_1" xmlns="http://www.w3.org/2000/svg" xmlns:xlink="http://www.w3.org/1999/xlink" x="0px" y="0px"
	 viewBox="0 0 512 512" style="enable-background:new 0 0 512 512;" xml:space="preserve">
<style type="text/css">
	.st0{fill:#EAEAEA;}
	.st1{fill:#6BA6D6;}
	.st2{fill:#FFD939;}
	.st3{opacity:0.5;}
	.st4{fill:none;stroke:#FFEB99;stroke-width:4;stroke-miterlimit:10;}
	.st5{opacity:0.3;}
	.st6{fill:none;stroke:#FFEB99;stroke-width:20;stroke-miterlimit:10;}
</style>
<g>
	<g>
		<path class="st0" d="M292.6,129.8L105,363.6h0c-24.3,30.3-19.5,74.6,10.8,98.9c30.3,24.3,74.6,19.5,98.9-10.8l187.6-233.7
			L292.6,129.8z"/>
	</g>
	<path class="st0" d="M410.7,223.8l-127.3-98.1c-2-1.5-2.3-4.4-0.8-6.3l6.8-8.8c1.5-2,4.4-2.3,6.3-0.8L423,207.9
		c2,1.5,2.3,4.4,0.8,6.3l-6.8,8.8C415.5,225,412.7,225.3,410.7,223.8z"/>
	<g>
		<path class="st1" d="M317.5,308.6L207.3,445.9c-1.5,1.9-3.1,3.6-4.8,5.3c1.7-1.7,3.3-3.4,4.8-5.3L317.5,308.6z"/>
		<path class="st1" d="M317.5,308.6L207.3,445.9c-1.5,1.9-3.1,3.6-4.8,5.3c-4.6,4.5-9.8,8.2-15.3,11c-0.8,0.4-1.7,0.8-2.5,1.2
			c-2.4,1.1-4.9,2-7.4,2.7c-0.8,0.2-1.5,0.4-2.3,0.6c-1.9,0.5-3.7,0.8-5.6,1.2c-0.9,0.2-1.9,0.3-2.8,0.4c-6.4,0.7-13,0.4-19.4-0.9
			c-1.7-0.4-3.3-0.8-4.9-1.3c-0.8-0.2-1.6-0.5-2.4-0.8c-1.6-0.6-3.2-1.2-4.8-1.9c-3.1-1.4-6.2-3.1-9.2-5c-1.5-1-2.9-2-4.3-3.2
			c-26.3-21.1-30.5-59.4-9.4-85.6l49-61H317.5z"/>
	</g>
	<circle class="st0" cx="147.8" cy="438.1" r="6.7"/>
	<circle class="st0" cx="183.6" cy="393.4" r="11.2"/>
	<circle class="st0" cx="170.2" cy="344.3" r="17.9"/>
	<g>
		<path class="st2" d="M346,54.4c-68.1-1.2-155.8,25.3-195.9,59.3s-17.3,62.5,50.8,63.7s155.8-25.3,195.9-59.3S414.1,55.6,346,54.4z
			 M213.2,167c-56.6-1-75.6-24.7-42.2-52.9s106.2-50.3,162.9-49.3c56.6,1,75.6,24.7,42.2,52.9S269.8,168,213.2,167z"/>
		<g class="st3">
			<path class="st4" d="M346,54.4c-68.1-1.2-155.8,25.3-195.9,59.3s-17.3,62.5,50.8,63.7s155.8-25.3,195.9-59.3S414.1,55.6,346,54.4
				z M213.2,167c-56.6-1-75.6-24.7-42.2-52.9s106.2-50.3,162.9-49.3c56.6,1,75.6,24.7,42.2,52.9S269.8,168,213.2,167z"/>
		</g>
		<g class="st5">
			<path class="st6" d="M346,54.4c-68.1-1.2-155.8,25.3-195.9,59.3s-17.3,62.5,50.8,63.7s155.8-25.3,195.9-59.3S414.1,55.6,346,54.4
				z M213.2,167c-56.6-1-75.6-24.7-42.2-52.9s106.2-50.3,162.9-49.3c56.6,1,75.6,24.7,42.2,52.9S269.8,168,213.2,167z"/>
		</g>
	</g>
</g>
</svg>
